<!-- icon666.com - MILLIONS vector ICONS FREE --><svg id="Capa_1" enable-background="new 0 0 512 512" viewBox="0 0 512 512" xmlns="http://www.w3.org/2000/svg"><g><path d="m44.995 30.137c177.734.066 308.272 41.013 388.681 121.784l-27.774.182c-8.284.054-14.956 6.812-14.901 15.093.055 8.481 7.089 15.015 15.098 14.897l61-.399c8.278-.054 14.956-6.813 14.901-15.094l-.399-60.583c-.056-8.499-7.105-15.014-15.098-14.897-8.284.054-14.956 6.813-14.901 15.094l.141 21.422c-52.459-51.201-123.983-87.502-213.221-108.096-97.482-22.497-195.02-19.395-193.522-19.395-8.282 0-14.997 6.71-15 14.99-.003 8.282 6.71 14.999 14.995 15.002z" fill="#000000" style="fill: rgb(214, 214, 214);"></path><path d="m497 271.068h-15v-44.987c0-8.282-6.716-14.996-15-14.996h-61c-8.284 0-15 6.714-15 14.996v44.987h-30v-134.462c0-8.282-6.716-14.996-15-14.996h-60c-8.284 0-15 6.714-15 14.996v134.462h-30v-164.953c0-8.282-6.716-14.996-15-14.996h-61c-8.284 0-15 6.714-15 14.996v164.953h-30v-194.944c0-8.282-6.716-14.996-15-14.996h-60c-8.284 0-15 6.714-15 14.996v194.945h-15c-8.284 0-15 6.714-15 14.996v210.94c0 8.281 6.716 14.995 15 14.995h482c8.284 0 15-6.714 15-14.996v-210.94c0-8.282-6.716-14.996-15-14.996zm-88.743 210.941h-304.514c-6.34-37.62-36.112-67.384-73.743-73.722v-33.504c37.631-6.339 67.403-36.102 73.743-73.722h304.514c6.34 37.62 36.112 67.384 73.743 73.722v33.504c-37.631 6.338-67.403 36.101-73.743 73.722zm73.743-180.949v43.089c-21.053-5.437-37.663-22.042-43.101-43.089zm-61-59.983h31v29.991h-31zm-120-89.475h30v119.466h-30zm-121-30.491h31v149.957h-31zm-120-29.992h30v179.949h-30zm13.101 209.941c-5.438 21.047-22.048 37.652-43.101 43.089v-43.089zm-43.101 137.859c21.053 5.437 37.663 22.042 43.101 43.089h-43.101zm408.899 43.09c5.439-21.047 22.048-37.652 43.101-43.089v43.089z" fill="#000000" style="fill: rgb(214, 214, 214);"></path><path d="m256 331.051c-33.084 0-60 26.908-60 59.983s26.916 59.983 60 59.983 60-26.908 60-59.983-26.916-59.983-60-59.983zm0 89.975c-16.542 0-30-13.454-30-29.992 0-16.537 13.458-29.991 30-29.991s30 13.454 30 29.991c0 16.538-13.458 29.992-30 29.992z" fill="#000000" style="fill: rgb(214, 214, 214);"></path><path d="m151 376.039h-30c-8.284 0-15 6.714-15 14.996s6.716 14.996 15 14.996h30c8.284 0 15-6.714 15-14.996s-6.716-14.996-15-14.996z" fill="#000000" style="fill: rgb(214, 214, 214);"></path><path d="m391 376.039h-30c-8.284 0-15 6.714-15 14.996s6.716 14.996 15 14.996h30c8.284 0 15-6.714 15-14.996s-6.716-14.996-15-14.996z" fill="#000000" style="fill: rgb(214, 214, 214);"></path></g></svg>