<!-- icon666.com - MILLIONS vector ICONS FREE --><svg version="1.1" id="Capa_1" xmlns="http://www.w3.org/2000/svg" xmlns:xlink="http://www.w3.org/1999/xlink" x="0px" y="0px" viewBox="0 0 490.667 490.667" style="enable-background:new 0 0 490.667 490.667;" xml:space="preserve"><g><g><g><path d="M245.333,383.984c5.888,0,10.667-4.779,10.667-10.667v-10.667h6.4c7.936,0,15.616-1.771,22.869-5.269 c6.869-3.328,13.013-8.043,18.261-14.016c5.205-5.909,9.28-12.736,12.053-20.245c2.944-7.765,4.416-16,4.416-24.469 s-1.472-16.704-4.373-24.448c-2.816-7.552-6.869-14.357-12.075-20.267c-5.248-5.973-11.392-10.688-18.261-14.016 c-7.275-3.499-14.955-5.269-22.891-5.269H256v-85.333h6.4c4.693,0,9.28,1.067,13.589,3.136c4.288,2.091,8.192,5.056,11.563,8.896 c3.456,3.968,6.187,8.533,8.085,13.653c2.069,5.525,8.171,8.341,13.739,6.272c5.525-2.069,8.341-8.213,6.272-13.739 c-2.816-7.552-6.869-14.357-12.075-20.267c-5.248-5.973-11.392-10.688-18.261-14.016c-7.296-3.499-14.976-5.269-22.912-5.269H256 v-10.667c0-5.888-4.779-10.667-10.667-10.667s-10.667,4.779-10.667,10.667v10.667h-6.4c-7.936,0-15.616,1.771-22.869,5.269 c-6.869,3.328-13.013,8.043-18.261,14.016c-5.227,5.931-9.28,12.736-12.075,20.267c-2.923,7.744-4.395,15.979-4.395,24.448 c0,8.469,1.472,16.704,4.373,24.448c2.816,7.552,6.869,14.357,12.075,20.267c5.248,5.973,11.392,10.688,18.261,14.016 c7.275,3.499,14.955,5.269,22.891,5.269h6.4v85.333h-6.4c-4.693,0-9.28-1.067-13.589-3.136 c-4.288-2.091-8.192-5.056-11.563-8.896c-3.456-3.968-6.187-8.533-8.085-13.653c-2.069-5.504-8.149-8.363-13.739-6.272 c-5.525,2.069-8.341,8.213-6.272,13.739c2.816,7.552,6.869,14.357,12.075,20.267c5.248,5.973,11.392,10.688,18.261,14.016 c7.296,3.499,14.976,5.269,22.912,5.269h6.4v10.667C234.667,379.205,239.445,383.984,245.333,383.984z M256,255.984h6.4 c4.693,0,9.28,1.067,13.589,3.136c4.288,2.091,8.192,5.056,11.563,8.896c3.456,3.968,6.187,8.533,8.107,13.675 c1.984,5.355,3.008,11.051,3.008,16.96s-1.024,11.605-3.051,16.981c-1.899,5.099-4.629,9.685-8.085,13.653 c-3.371,3.84-7.275,6.805-11.563,8.896c-4.309,2.069-8.875,3.136-13.568,3.136H256V255.984z M228.267,234.651 c-4.693,0-9.28-1.067-13.589-3.136c-4.288-2.091-8.192-5.056-11.563-8.896c-3.456-3.968-6.187-8.533-8.107-13.675 c-1.984-5.355-3.008-11.051-3.008-16.96c0-5.909,1.024-11.605,3.051-16.981c1.899-5.099,4.629-9.685,8.085-13.653 c3.371-3.84,7.275-6.805,11.563-8.896c4.309-2.069,8.875-3.136,13.568-3.136h6.4v85.333H228.267z" fill="#000000" style="fill: rgb(214, 214, 214);"></path><path d="M480,234.651c-5.888,0-10.667,4.779-10.667,10.667c0,7.744-0.405,15.403-1.152,22.891 c-0.789,7.531-1.92,14.976-3.413,22.251c-1.472,7.317-3.328,14.485-5.504,21.461c-2.197,6.997-4.715,13.888-7.531,20.565 c-2.859,6.699-5.973,13.227-9.451,19.605c-3.435,6.336-7.168,12.501-11.221,18.475c-4.011,5.952-8.341,11.712-12.864,17.237 c-4.587,5.525-9.387,10.837-14.485,15.915c-5.099,5.077-10.389,9.899-15.915,14.464c-5.525,4.544-11.264,8.875-17.259,12.885 c-5.952,4.032-12.139,7.765-18.453,11.221c-6.357,3.435-12.885,6.592-19.584,9.408c-6.699,2.816-13.589,5.355-20.544,7.552 c-7.019,2.176-14.187,4.011-21.504,5.504c-7.275,1.493-14.72,2.624-22.208,3.413c-15.083,1.493-30.827,1.493-45.824,0 c-7.531-0.789-14.976-1.92-22.251-3.413c-7.317-1.472-14.485-3.328-21.461-5.504c-6.997-2.197-13.888-4.715-20.565-7.531 c-6.699-2.859-13.248-5.995-19.584-9.408c-6.336-3.477-12.523-7.211-18.496-11.264c-5.952-4.011-11.712-8.341-17.237-12.864 c-5.525-4.587-10.837-9.387-15.915-14.485s-9.899-10.389-14.464-15.915c-4.501-5.504-8.853-11.264-12.864-17.237 c-1.728-2.539-3.2-5.269-4.8-7.893h62.549c5.888,0,10.667-4.779,10.667-10.667c0-5.888-4.779-10.667-10.667-10.667H32 c-5.888,0-10.667,4.779-10.667,10.667v85.333c0,5.888,4.779,10.667,10.667,10.667s10.667-4.779,10.667-10.667v-53.803 c4.203,6.165,8.619,12.139,13.376,17.856c4.992,6.059,10.261,11.883,15.808,17.408c5.547,5.525,11.349,10.816,17.408,15.829 c6.059,4.992,12.352,9.707,18.88,14.101c6.549,4.416,13.269,8.512,20.245,12.309c6.933,3.776,14.101,7.211,21.461,10.325 c7.317,3.093,14.827,5.845,22.549,8.256c7.68,2.368,15.531,4.395,23.509,6.037c7.979,1.621,16.107,2.88,24.384,3.712 c8.235,0.853,16.597,1.301,25.045,1.301s16.811-0.448,25.109-1.28c8.235-0.832,16.363-2.091,24.341-3.712 c7.979-1.643,15.808-3.669,23.552-6.037c7.659-2.389,15.189-5.163,22.528-8.277c7.339-3.115,14.507-6.549,21.461-10.325 c6.955-3.776,13.696-7.872,20.203-12.267c6.549-4.416,12.843-9.131,18.901-14.144c6.059-4.992,11.883-10.261,17.408-15.808 s10.816-11.349,15.829-17.408c4.992-6.059,9.707-12.352,14.101-18.88c4.416-6.549,8.512-13.291,12.267-20.224 c3.797-6.933,7.253-14.123,10.368-21.483c3.093-7.317,5.845-14.827,8.256-22.549c2.368-7.68,4.395-15.531,6.037-23.509 c1.621-7.979,2.88-16.107,3.712-24.384c0.811-8.235,1.259-16.597,1.259-25.045C490.667,239.429,485.888,234.651,480,234.651z" fill="#000000" style="fill: rgb(214, 214, 214);"></path><path d="M22.485,222.427c0.789-7.531,1.92-14.976,3.413-22.251c1.472-7.317,3.328-14.485,5.504-21.461 c2.176-6.997,4.693-13.888,7.509-20.565c2.859-6.699,5.995-13.248,9.429-19.584c3.477-6.336,7.211-12.523,11.264-18.496 c3.989-5.952,8.341-11.712,12.843-17.237c4.587-5.525,9.387-10.837,14.485-15.915c5.099-5.077,10.389-9.899,15.915-14.464 c5.525-4.523,11.285-8.875,17.259-12.885c5.952-4.032,12.139-7.765,18.453-11.221c6.357-3.456,12.907-6.592,19.584-9.429 c6.677-2.837,13.589-5.355,20.544-7.531c7.019-2.176,14.187-4.011,21.504-5.504c7.275-1.493,14.72-2.624,22.208-3.413 c15.083-1.493,30.827-1.493,45.824,0c7.531,0.789,14.976,1.92,22.251,3.413c7.317,1.472,14.485,3.328,21.461,5.504 c6.997,2.197,13.888,4.715,20.565,7.531c6.699,2.859,13.248,5.995,19.584,9.408c6.336,3.477,12.523,7.211,18.496,11.264 c5.952,4.011,11.712,8.341,17.237,12.864c5.525,4.587,10.837,9.387,15.915,14.485c5.077,5.099,9.899,10.389,14.464,15.915 c4.544,5.525,8.875,11.264,12.885,17.259c1.728,2.539,3.179,5.269,4.8,7.893h-62.549c-5.888-0.021-10.667,4.757-10.667,10.645 s4.779,10.667,10.667,10.667h85.333c5.888,0,10.667-4.779,10.667-10.667V53.317c0-5.888-4.779-10.667-10.667-10.667 c-5.888,0-10.667,4.779-10.667,10.667v53.803c-4.203-6.165-8.619-12.139-13.376-17.856c-4.992-6.059-10.261-11.883-15.808-17.408 s-11.349-10.837-17.429-15.851c-6.059-4.992-12.352-9.707-18.88-14.101c-6.549-4.416-13.269-8.512-20.245-12.309 c-6.933-3.776-14.101-7.211-21.461-10.325c-7.317-3.093-14.827-5.845-22.549-8.256c-7.68-2.368-15.531-4.395-23.509-6.037 c-7.979-1.621-16.107-2.88-24.384-3.712c-16.491-1.664-33.579-1.664-50.176,0c-8.235,0.832-16.363,2.091-24.341,3.712 c-7.915,1.643-15.765,3.648-23.488,6.037c-7.659,2.389-15.189,5.163-22.528,8.256c-7.339,3.093-14.507,6.549-21.461,10.325 c-6.955,3.776-13.675,7.893-20.203,12.288c-6.528,4.416-12.821,9.131-18.88,14.144c-6.08,4.992-11.883,10.261-17.429,15.808 c-5.547,5.547-10.816,11.349-15.829,17.429c-4.992,6.059-9.707,12.352-14.101,18.859c-4.416,6.549-8.533,13.269-12.309,20.267 c-3.776,6.933-7.211,14.101-10.347,21.44c-3.072,7.317-5.845,14.848-8.235,22.549c-2.368,7.68-4.395,15.531-6.037,23.509 c-1.621,7.979-2.88,16.107-3.712,24.384C0.448,228.507,0,236.869,0,245.317c0,5.888,4.779,10.667,10.667,10.667 s10.667-4.779,10.667-10.667C21.333,237.573,21.739,229.915,22.485,222.427z" fill="#000000" style="fill: rgb(214, 214, 214);"></path></g></g></g></svg>