<!-- icon666.com - MILLIONS vector ICONS FREE --><svg version="1.1" id="Capa_1" xmlns="http://www.w3.org/2000/svg" xmlns:xlink="http://www.w3.org/1999/xlink" x="0px" y="0px" viewBox="0 0 511.973 511.973" style="enable-background:new 0 0 511.973 511.973;" xml:space="preserve"><g><g><path d="M447.78,177.541c-1.024-9.952-5.952-18.848-13.856-25.12c-21.728-17.184-43.264-34.368-64.768-51.552l-50.976-40.64 c-13.056-10.144-17.824-21.152-15.36-36.512c1.152-10.656-3.968-16.608-7.104-19.2c-3.264-2.656-10.368-6.624-21.664-3.168 c-18.4,5.664-32.288,16.8-40.32,32.48c-5.344,10.848-12.576,15.168-24.928,14.72c-36.672-1.536-57.6,22.048-69.984,39.904 c-17.024,24.032-24.864,51.008-30.816,76.512c-6.048,25.344-9.6,52.672-10.784,83.232c-0.736,12.704-0.8,25.216-0.896,37.728 c-0.032,8.032-0.096,16.064-0.32,27.072v54.976c0,8.832,7.168,16,16,16h256c8.832,0,16-7.168,16-16l-0.096-39.584 c0.288-2.592,2.496-25.696-15.328-43.456c-13.152-13.152-27.136-25.472-27.136-25.472c-0.128-0.096-0.256-0.224-0.384-0.32 c-5.632-4.672-10.72-9.92-15.136-15.68l-12.16-15.872c4.192-0.288,8.416-0.992,12.64-2.08c6.752-1.568,12.736-0.672,17.536,2.368 c5.632,3.808,11.872,7.104,18.144,10.368c20.064,10.464,45.12,5.472,59.456-11.904l17.792-21.44 C445.796,197.189,448.804,187.461,447.78,177.541z M414.82,184.357l-17.952,21.632c-4.832,5.792-13.28,7.392-20,3.904 c-5.184-2.688-10.368-5.376-15.36-8.704c-12.448-8-27.136-10.368-42.784-6.72c-12.032,3.168-22.592,0.544-33.824-8.128 l-8.736-7.136c-6.24-5.152-15.424-4.8-21.28,0.864c-5.824,5.664-6.496,14.784-1.568,21.248l47.2,61.6 c5.824,7.584,12.544,14.56,19.968,20.704c1.6,1.408,13.888,12.32,25.472,23.936c6.944,6.944,6.176,16.832,6.048,18.912v25.504 h-224v-40.928c0.224-8.352,0.288-16.64,0.32-24.928c0.064-12,0.128-23.936,0.832-36.384c1.12-28.736,4.384-54.048,9.984-77.408 c5.216-22.4,11.968-45.824,25.92-65.536c13.6-19.68,25.472-27.04,42.464-26.272c25.088,0.576,44-10.4,54.784-32.32 c1.984-3.904,4.704-7.136,8.224-9.824c1.952,18.144,11.424,34.176,27.904,47.008l50.752,40.448 c21.568,17.216,43.136,34.432,64.864,51.648c1.376,1.088,1.792,2.4,1.888,3.328C416.036,181.701,415.908,183.045,414.82,184.357z" fill="#000000" style="fill: rgb(214, 214, 214);"></path></g></g><g><g><path d="M414.308,488.837l-32-64c-2.72-5.44-8.256-8.864-14.304-8.864h-256c-6.048,0-11.584,3.424-14.304,8.832l-32,64 c-2.496,4.96-2.24,10.848,0.704,15.584c2.912,4.704,8.064,7.584,13.6,7.584h320c5.536,0,10.688-2.88,13.6-7.584 C416.516,499.685,416.804,493.765,414.308,488.837z M105.892,479.973l16-32h236.224l16,32H105.892z" fill="#000000" style="fill: rgb(214, 214, 214);"></path></g></g></svg>