<!-- icon666.com - MILLIONS vector ICONS FREE --><svg id="Layer_1" enable-background="new 0 0 512 512" viewBox="0 0 512 512" xmlns="http://www.w3.org/2000/svg"><path d="m152.174 194.446c-64.791 0-117.501 52.712-117.501 117.505 0 64.789 52.71 117.496 117.501 117.496s117.503-52.707 117.503-117.496c0-64.793-52.712-117.505-117.503-117.505zm0 221.163c-57.16 0-103.663-46.5-103.663-103.658 0-57.162 46.502-103.667 103.663-103.667s103.665 46.505 103.665 103.667c0 57.158-46.505 103.658-103.665 103.658zm359.825-317.254c-.03-33.138-80.46-50.478-159.912-50.478-79.45 0-159.879 17.34-159.909 50.478 0 .005-.001.009-.001.014v.005 63.045 3.729c-12.756-3.48-26.159-5.373-40.002-5.373-83.909-.001-152.175 68.265-152.175 152.176 0 83.906 68.266 152.172 152.174 152.172 26.447 0 51.332-6.793 73.024-18.708 29.559 11.735 76.559 18.708 126.889 18.708 79.467 0 159.913-17.347 159.913-50.496v-63.054-63.05-63.05-63.054-63.046-.005c0-.004-.001-.008-.001-.013zm-13.837 126.118c0 6.162-11.068 16.369-42.259 24.851-28.025 7.617-64.894 11.811-103.816 11.811-20.054 0-39.416-1.144-57.718-3.306-7.99-20.922-20.465-39.634-36.252-54.97 26.999 5.855 59.741 9.059 93.97 9.059 40.131 0 78.289-4.369 107.446-12.297 16.856-4.581 29.809-10.099 38.629-16.383zm-146.075 50.5c40.113 0 78.271-4.369 107.446-12.297 16.856-4.586 29.811-10.104 38.629-16.387v41.234c0 6.162-11.068 16.369-42.259 24.851-28.007 7.617-64.876 11.811-103.816 11.811-16.53 0-32.647-.795-48.098-2.279.214-3.294.361-6.607.361-9.955 0-13.728-1.858-27.023-5.282-39.683 16.961 1.762 34.713 2.705 53.019 2.705zm-49.596 60.691c15.944 1.534 32.565 2.359 49.596 2.359 40.131 0 78.289-4.369 107.446-12.297 16.856-4.586 29.811-10.104 38.629-16.387v41.234c0 6.167-11.068 16.374-42.259 24.851-28.007 7.617-64.876 11.811-103.816 11.811-22.733 0-45.115-1.468-65.393-4.248 7.713-14.546 13.15-30.474 15.797-47.323zm195.671-174.245c0 6.167-11.068 16.374-42.259 24.851-28.007 7.617-64.876 11.811-103.816 11.811-38.937 0-75.807-4.194-103.814-11.811-31.192-8.478-42.259-18.685-42.259-24.851v-41.151c26.364 18.854 86.494 28.605 146.073 28.605 59.581 0 119.711-9.752 146.075-28.605zm-146.075-99.704c90.498 0 146.069 21.349 146.075 36.656 0 .091-.026.191-.032.284-.014.306-.046.613-.103.923-1.338 6.23-12.895 15.694-42.125 23.642-28.007 7.617-64.876 11.811-103.816 11.811-38.937 0-75.807-4.194-103.814-11.811-29.23-7.948-40.786-17.412-42.125-23.642-.057-.31-.09-.618-.103-.923-.005-.092-.032-.193-.032-.284.008-15.306 55.577-36.656 146.075-36.656zm-338.249 250.236c0-76.28 62.057-138.338 138.336-138.338s138.338 62.059 138.338 138.338-62.059 138.334-138.338 138.334-138.336-62.055-138.336-138.334zm338.249 138.334c-43.371 0-83.908-5.24-112.008-14.237 15.325-10.887 28.561-24.517 38.966-40.197 22.395 3.404 47.516 5.222 73.042 5.222 40.131 0 78.289-4.369 107.446-12.297 16.856-4.581 29.809-10.099 38.629-16.383v41.234c0 15.306-55.572 36.658-146.075 36.658zm-154.14-110.627c1.11 9.14-1.336 17.473-7.072 24.104-6.927 8.011-18.568 13.311-31.782 14.672v10.675c0 3.82-3.097 6.919-6.919 6.919s-6.919-3.099-6.919-6.919v-10.785c-19.424-2.412-34.574-14.506-38.912-31.904-.923-3.707 1.333-7.459 5.041-8.383 3.694-.928 7.462 1.329 8.387 5.041 4.146 16.635 20.795 22.144 33.833 21.865 11.135-.261 21.656-4.279 26.806-10.234 3.2-3.698 4.444-8.077 3.8-13.383-1.505-12.396-11.696-19.487-33.043-22.987-32.716-5.374-40.329-21.856-40.953-34.739-.869-17.856 11.664-32.829 31.187-37.257 1.258-.286 2.547-.514 3.854-.701v-10.858c0-3.82 3.097-6.919 6.919-6.919s6.919 3.099 6.919 6.919v10.809c14.219 1.893 28.358 9.958 35.361 26.633 1.48 3.527-.178 7.581-3.7 9.059-3.514 1.486-7.577-.171-9.056-3.698-6.899-16.437-24.14-20.716-37.234-17.748-9.833 2.23-21.083 9.617-20.428 23.09.205 4.221.829 17.063 29.374 21.752 10.165 1.671 41.109 6.747 44.537 34.977z" fill="#000000" style="fill: rgb(214, 214, 214);"></path></svg>