<!-- icon666.com - MILLIONS vector ICONS FREE --><svg viewBox="0 0 512.01051 512.01051" xmlns="http://www.w3.org/2000/svg"><path d="m60.648438 507.027344c3.875 3.867187 9.375 5.640625 14.785156 4.761718 5.40625-.875 10.0625-4.296874 12.519531-9.191406l17.636719-35.292968 82.664062-44.953126 5.597656 10.390626c4.285157 8.007812 11.605469 13.960937 20.316407 16.523437 8.671875 2.628906 18.03125 1.675781 25.996093-2.644531l60.105469-32.378906c16.5625-8.957032 22.765625-29.617188 13.875-46.214844l-5.867187-10.914063 128.929687-70.117187c4.726563-2.574219 7.960938-7.226563 8.730469-12.550782.769531-5.328124-1.019531-10.703124-4.824219-14.507812l-189.039062-189.007812c-3.804688-3.800782-9.179688-5.585938-14.503907-4.816407-5.324218.769531-9.972656 4.003907-12.546874 8.726563l-180.316407 331.542968-35.292969 17.648438c-4.898437 2.457031-8.316406 7.113281-9.195312 12.523438-.875 5.40625.894531 10.90625 4.765625 14.785156zm238.429687-130.917969c4.460937 8.296875 1.355469 18.640625-6.9375 23.105469l-60.101563 32.429687c-3.988281 2.148438-8.664062 2.621094-13 1.320313-4.335937-1.300782-7.980468-4.269532-10.125-8.257813l-5.632812-10.472656 89.96875-48.980469zm-59.070313-293.113281 189.03125 188.988281-15.640624 8.535156-181.890626-181.890625zm-16.996093 31.265625 174.746093 174.746093-104.867187 57.027344c-.085937 0-.171875 0-.25.078125-.074219.078125-.125.121094-.203125.171875l-191.761719 104.300782-39.253906-39.253907zm-173.78125 308.941406 39.578125 39.578125-16.097656 32.179688-55.660157-55.664063zm0 0" fill="#000000" style="fill: rgb(214, 214, 214);"></path><path d="m277.503906 70.949219c2.148438.71875 4.492188.554687 6.519532-.457031 2.027343-1.011719 3.566406-2.789063 4.285156-4.9375l18.097656-54.316407c.964844-2.894531.308594-6.085937-1.71875-8.367187-2.027344-2.28125-5.117188-3.308594-8.105469-2.695313s-5.425781 2.773438-6.390625 5.671875l-18.082031 54.304688c-1.488281 4.472656.925781 9.304687 5.394531 10.796875zm0 0" fill="#000000" style="fill: rgb(214, 214, 214);"></path><path d="m441.0625 234.507812c1.492188 4.46875 6.324219 6.882813 10.792969 5.390626l54.308593-18.105469c2.894532-.964844 5.058594-3.398438 5.671876-6.390625.613281-2.988282-.414063-6.078125-2.695313-8.105469-2.285156-2.027344-5.472656-2.683594-8.371094-1.71875l-54.3125 18.097656c-2.15625.71875-3.9375 2.261719-4.949219 4.296875-1.011718 2.03125-1.171874 4.382813-.445312 6.535156zm0 0" fill="#000000" style="fill: rgb(214, 214, 214);"></path><path d="m376.753906 143.789062c2.265625.003907 4.4375-.894531 6.035156-2.5l42.238282-42.242187c2.363281-2.101563 3.367187-5.339844 2.609375-8.410156-.757813-3.070313-3.152344-5.472657-6.21875-6.238281-3.070313-.765626-6.308594.230468-8.421875 2.582031l-42.238282 42.242187c-2.441406 2.441406-3.171874 6.109375-1.851562 9.296875s4.433594 5.269531 7.882812 5.269531zm0 0" fill="#000000" style="fill: rgb(214, 214, 214);"></path><path d="m324.335938 106.515625c1.976562 1.097656 4.3125 1.367187 6.488281.746094 2.175781-.621094 4.015625-2.078125 5.117187-4.058594l30.164063-54.304687c2.289062-4.121094.808593-9.316407-3.308594-11.605469-4.121094-2.292969-9.316406-.808594-11.605469 3.308593l-30.167968 54.308594c-1.097657 1.976563-1.367188 4.3125-.746094 6.488282.621094 2.175781 2.078125 4.015624 4.058594 5.117187zm0 0" fill="#000000" style="fill: rgb(214, 214, 214);"></path><path d="m405.496094 187.675781c1.097656 1.976563 2.941406 3.4375 5.117187 4.058594s4.511719.351563 6.488281-.75l54.304688-30.164063c4.121094-2.289062 5.601562-7.484374 3.3125-11.605468-2.292969-4.117188-7.488281-5.601563-11.605469-3.308594l-54.304687 30.164062c-1.980469 1.097657-3.441406 2.941407-4.0625 5.117188s-.351563 4.511719.75 6.488281zm0 0" fill="#000000" style="fill: rgb(214, 214, 214);"></path><path d="m155.484375 287.601562c1.242187.671876 2.628906 1.023438 4.039063 1.023438 3.140624 0 6.027343-1.722656 7.515624-4.488281l42.242188-78.4375c1.445312-2.6875 1.351562-5.9375-.25-8.53125-1.601562-2.597657-4.464844-4.140625-7.515625-4.050781-3.046875.089843-5.816406 1.796874-7.261719 4.480468l-42.242187 78.449219c-2.230469 4.148437-.675781 9.320313 3.472656 11.554687zm0 0" fill="#000000" style="fill: rgb(214, 214, 214);"></path><path d="m210.015625 185.132812c2.023437 1.011719 4.367187 1.179688 6.515625.464844s3.921875-2.253906 4.933594-4.28125l12.074218-24.140625c2.109376-4.214843.402344-9.339843-3.8125-11.449219-4.214843-2.109374-9.34375-.402343-11.453124 3.8125l-12.074219 24.140626c-1.011719 2.023437-1.179688 4.371093-.464844 6.515624.714844 2.148438 2.253906 3.925782 4.28125 4.9375zm0 0" fill="#000000" style="fill: rgb(214, 214, 214);"></path></svg>